<?xml version="1.0" encoding="UTF-8"?>
<svg version="1.1" xmlns="http://www.w3.org/2000/svg" width="512" height="512">
<path d="M0 0 C2.93423195 1.79646854 4.47205355 2.9441071 6 6 C6.09765586 7.72021734 6.13099913 9.44423417 6.13422108 11.16721821 C6.13867892 12.26886981 6.14313676 13.37052142 6.14772969 14.5055564 C6.14754533 15.72585978 6.14736097 16.94616316 6.14717102 18.20344543 C6.15084771 19.492029 6.1545244 20.78061257 6.1583125 22.10824412 C6.16834915 25.69697123 6.17205196 29.28568161 6.17470181 32.87442076 C6.1785999 36.74023695 6.18817853 40.60603983 6.19691467 44.47184753 C6.21669247 53.81334707 6.22674668 63.15484771 6.23564246 72.49636295 C6.24002296 76.8924347 6.24539036 81.28850524 6.25063133 85.68457603 C6.26764446 100.29273256 6.28213968 114.90088832 6.28938007 129.50905323 C6.29129005 133.30136427 6.29321037 137.09367531 6.29516602 140.88598633 C6.29564976 141.82857804 6.2961335 142.77116975 6.2966319 143.74232485 C6.30493613 159.01925935 6.33027929 174.29611564 6.36274669 189.57301597 C6.39578828 205.24750702 6.41382618 220.92195829 6.41702431 236.59648436 C6.41919204 245.40122843 6.427979 254.20585843 6.45348549 263.01056862 C6.47515288 270.50747492 6.4832625 278.00423947 6.47351871 285.50117353 C6.46896252 289.32764618 6.47093622 293.15382612 6.49028015 296.98025894 C6.51105562 301.12558161 6.50096367 305.27025025 6.48774719 309.41560364 C6.49871644 310.62921485 6.50968568 311.84282607 6.52098733 313.09321338 C6.45809517 321.22491607 6.45809517 321.22491607 4.0945158 325.22402477 C0.31048888 328.43256494 -2.68901497 328.3278431 -7.515625 328.29296875 C-10.97198834 327.88537873 -12.68663869 326.53723498 -15 324 C-16.27202879 321.45594242 -16.12889271 319.68220265 -16.13422108 316.83278179 C-16.13867892 315.73113019 -16.14313676 314.62947858 -16.14772969 313.4944436 C-16.14754533 312.27414022 -16.14736097 311.05383684 -16.14717102 309.79655457 C-16.15084771 308.507971 -16.1545244 307.21938743 -16.1583125 305.89175588 C-16.16834915 302.30302877 -16.17205196 298.71431839 -16.17470181 295.12557924 C-16.1785999 291.25976305 -16.18817853 287.39396017 -16.19691467 283.52815247 C-16.21669247 274.18665293 -16.22674668 264.84515229 -16.23564246 255.50363705 C-16.24002296 251.1075653 -16.24539036 246.71149476 -16.25063133 242.31542397 C-16.26764446 227.70726744 -16.28213968 213.09911168 -16.28938007 198.49094677 C-16.29129005 194.69863573 -16.29321037 190.90632469 -16.29516602 187.11401367 C-16.29564976 186.17142196 -16.2961335 185.22883025 -16.2966319 184.25767515 C-16.30493613 168.98074065 -16.33027929 153.70388436 -16.36274669 138.42698403 C-16.39578828 122.75249298 -16.41382618 107.07804171 -16.41702431 91.40351564 C-16.41919204 82.59877157 -16.427979 73.79414157 -16.45348549 64.98943138 C-16.47515288 57.49252508 -16.4832625 49.99576053 -16.47351871 42.49882647 C-16.46896252 38.67235382 -16.47093622 34.84617388 -16.49028015 31.01974106 C-16.51105562 26.87441839 -16.50096367 22.72974975 -16.48774719 18.58439636 C-16.49871644 17.37078515 -16.50968568 16.15717393 -16.52098733 14.90678662 C-16.45809517 6.77508393 -16.45809517 6.77508393 -14.0945158 2.77597523 C-9.82851707 -0.84123695 -5.40304822 -0.63715191 0 0 Z " fill="#000000" transform="translate(261,92)"/>
<path d="M0 0 C4.03749734 3.028123 5.2861308 5.11731267 6 10 C6.08688649 11.56067635 6.12896208 13.12434594 6.13142776 14.68743706 C6.13526891 15.60572505 6.13911005 16.52401304 6.1430676 17.47012794 C6.14220112 18.47021735 6.14133463 19.47030676 6.14044189 20.5007019 C6.14341302 21.56992579 6.14638414 22.63914967 6.1494453 23.74077427 C6.15812869 27.32963215 6.15964024 30.91845666 6.16113281 34.50732422 C6.16576116 37.07795279 6.17078584 39.64858068 6.17617798 42.21920776 C6.18974499 49.20676041 6.19578316 56.19430731 6.20018864 63.18187094 C6.2029532 67.54574931 6.20719088 71.90962547 6.21169281 76.27350235 C6.22388217 88.35888212 6.2341829 100.44426013 6.2375679 112.52964592 C6.23778747 113.30272353 6.23800703 114.07580114 6.23823325 114.87230534 C6.23845153 115.647213 6.23866981 116.42212066 6.2388947 117.22051036 C6.23933816 118.79072436 6.23978473 120.36093835 6.24023438 121.93115234 C6.2404558 122.71002973 6.24067723 123.48890712 6.24090537 124.29138686 C6.24485447 136.91549285 6.26231338 149.53954116 6.2855939 162.16362487 C6.30930966 175.12845153 6.32176981 188.09324925 6.32293582 201.05809796 C6.32385233 208.33589199 6.32959875 215.61361082 6.34775543 222.89138412 C6.36476947 229.73514442 6.3664074 236.5787597 6.35761642 243.42253494 C6.35684436 245.93519218 6.36121094 248.447857 6.37107468 250.960495 C6.38374509 254.38894484 6.37794365 257.81688476 6.36749268 261.24533081 C6.37554908 262.24095878 6.38360548 263.23658674 6.39190602 264.26238525 C6.34582946 270.71957335 5.56338825 275.58686979 1.5859375 280.8828125 C-1.55337666 283.09425055 -5.25649539 283.11204151 -9 283 C-12.80092327 281.43005343 -14.80943494 279.43272991 -17 276 C-17.37834883 273.77886212 -17.37834883 273.77886212 -17.38311005 271.30787849 C-17.39216669 270.36309769 -17.40122333 269.41831688 -17.41055441 268.44490635 C-17.40522648 267.4100944 -17.39989856 266.37528244 -17.39440918 265.30911255 C-17.40050028 264.20736911 -17.40659139 263.10562567 -17.41286707 261.97049606 C-17.42956351 258.265546 -17.42471166 254.56093713 -17.41992188 250.85595703 C-17.42725836 248.20502534 -17.43575012 245.55411953 -17.44558716 242.90319824 C-17.46665424 236.442009 -17.47118127 229.98090946 -17.46939927 223.51968993 C-17.46809223 218.26810897 -17.47189284 213.01655601 -17.47932434 207.76498032 C-17.48142351 206.25291026 -17.48352111 204.7408402 -17.48561716 203.22877014 C-17.48666069 202.47619308 -17.48770422 201.72361602 -17.48877937 200.94823359 C-17.50768706 186.71085565 -17.50662999 172.47352922 -17.49981004 158.23614393 C-17.49423478 145.21031993 -17.51505824 132.18469262 -17.54817051 119.15891458 C-17.58190108 105.78617526 -17.5970766 92.41353018 -17.59245348 79.04074752 C-17.59020806 71.53209847 -17.59546233 64.0236312 -17.62034607 56.51501846 C-17.64135116 50.12229296 -17.64495937 43.72984888 -17.62604648 37.33711185 C-17.61688315 34.07544329 -17.61846953 30.81440897 -17.63640213 27.55276108 C-17.65450624 24.01630961 -17.64190908 20.48126275 -17.62145996 16.94485474 C-17.63397781 15.91450422 -17.64649566 14.88415371 -17.65939283 13.82258046 C-17.6031846 9.29940561 -17.51784332 6.01482572 -14.64865875 2.37844658 C-10.0625168 -1.73982408 -5.72605024 -1.46667252 0 0 Z " fill="#000000" transform="translate(156,115)"/>
<path d="M0 0 C1.12535156 0.04833984 1.12535156 0.04833984 2.2734375 0.09765625 C5.86312939 1.37968907 7.84919378 3.66652943 9.625 6.9375 C10.35318801 10.58237169 10.3001021 14.16169584 10.25991821 17.86889648 C10.26771817 18.97234878 10.27551812 20.07580107 10.28355443 21.21269131 C10.30350437 24.91166467 10.28769686 28.60961268 10.27197266 32.30859375 C10.27874744 34.95983894 10.28746874 37.6110134 10.29852295 40.26223755 C10.3207484 46.7165417 10.31595743 53.17055502 10.30145974 59.62487054 C10.2901647 64.87069601 10.28863773 70.11644002 10.29407883 75.36227417 C10.29484499 76.10907643 10.29561116 76.85587869 10.29640054 77.62531132 C10.29799918 79.14245775 10.29962024 80.65960416 10.3012635 82.17675054 C10.31551896 96.40083212 10.29913152 110.62475254 10.27226166 124.84880769 C10.24992302 137.0519551 10.2538032 149.25486469 10.27685547 161.45800781 C10.30361712 175.63140942 10.31414568 189.8046698 10.29879415 203.97809315 C10.29720142 205.48963735 10.29562956 207.00118158 10.29407883 208.51272583 C10.29330745 209.2564214 10.29253607 210.00011698 10.29174132 210.76634878 C10.2874254 216.00547104 10.29470851 221.24450368 10.30647659 226.48361206 C10.32050425 232.86899371 10.31669642 239.25406807 10.29007287 245.63941455 C10.27693768 248.8970298 10.27447061 252.15402736 10.28831863 255.41165543 C10.30195033 258.94365158 10.28488412 262.47420001 10.25991821 266.00610352 C10.27107182 267.03508979 10.28222543 268.06407606 10.29371703 269.12424374 C10.23118773 273.67418425 10.13806995 276.92501997 7.22789574 280.56382751 C3.90115619 283.59759872 2.10917569 283.90771276 -2.2265625 284.109375 C-6.31916123 283.7819671 -8.45999932 281.95053647 -11.125 279 C-13.21473525 275.55193683 -13.50015374 272.35235664 -13.50642776 268.37311077 C-13.51026891 267.45681383 -13.51411005 266.54051689 -13.5180676 265.59645337 C-13.51720112 264.59345112 -13.51633463 263.59044887 -13.51544189 262.55705261 C-13.51841302 261.48868316 -13.52138414 260.4203137 -13.5244453 259.31956941 C-13.5331402 255.72760546 -13.53464121 252.13567482 -13.53613281 248.54370117 C-13.54076039 245.9732201 -13.54578496 243.40273971 -13.55117798 240.83226013 C-13.56475441 233.84051617 -13.57078484 226.84877795 -13.57518864 219.857023 C-13.57795201 215.4909724 -13.58218952 211.124924 -13.58669281 206.75887489 C-13.59888417 194.6692465 -13.60918401 182.57961987 -13.6125679 170.48998547 C-13.61278747 169.71637274 -13.61300703 168.94276001 -13.61323325 168.14570447 C-13.61345153 167.37024871 -13.61366981 166.59479295 -13.6138947 165.79583853 C-13.61433817 164.22448806 -13.61478473 162.65313758 -13.61523438 161.08178711 C-13.6154558 160.30234422 -13.61567723 159.52290133 -13.61590537 158.71983895 C-13.61985366 146.08920286 -13.6373092 133.45862445 -13.6605939 120.82801064 C-13.68430993 107.85869558 -13.69676985 94.88940947 -13.69793582 81.92007238 C-13.6988524 74.63891 -13.70460037 67.3578228 -13.72275543 60.07668114 C-13.73977005 53.22883024 -13.74140716 46.38112427 -13.73261642 39.53325844 C-13.73184436 37.01898949 -13.73621099 34.50471297 -13.74607468 31.99046326 C-13.7587451 28.55977048 -13.75294362 25.1295873 -13.74249268 21.69889832 C-13.75054908 20.70258823 -13.75860548 19.70627815 -13.76690602 18.67977685 C-13.72106634 12.2514956 -13.01597324 7.23871655 -8.875 2.0625 C-6.02067975 -0.07824019 -3.42314193 -0.22782003 0 0 Z " fill="#000000" transform="translate(363.375,114.0625)"/>
<path d="M0 0 C3.58552881 1.63687185 4.79315055 2.68972583 7 6 C7.1997766 8.62426875 7.282602 11.14306408 7.27415466 13.76803589 C7.28200968 14.96715345 7.28200968 14.96715345 7.29002339 16.19049561 C7.30506541 18.87818653 7.30572945 21.56568779 7.30639648 24.25341797 C7.31401513 26.1767611 7.32244211 28.10010117 7.33161926 30.0234375 C7.35359974 35.25483953 7.36236788 40.4861831 7.36744571 45.71762609 C7.37108496 48.98429531 7.37732274 52.25094911 7.3844471 55.51761246 C7.4089535 66.90904669 7.42199616 78.30043529 7.42553711 89.69189453 C7.42917376 100.31825575 7.45907542 110.94432837 7.50094169 121.57060134 C7.53560464 130.68744745 7.55108485 139.80419773 7.55178314 148.92110932 C7.5525773 154.36907501 7.56137936 159.81674687 7.58978081 165.26464462 C7.61589308 170.38815032 7.61820492 175.51111714 7.60212517 180.63465881 C7.60030524 182.51604 7.60705019 184.3974517 7.62294388 186.27876663 C7.64331013 188.8458193 7.63290965 191.41096969 7.61473083 193.97799683 C7.6279308 194.72401213 7.64113077 195.47002743 7.65473074 196.23864925 C7.59066809 200.19424379 7.13197315 201.83929341 4.58657932 204.9388752 C0.47829131 208.2125789 -2.83579696 208.56498958 -8 208 C-11.58552881 206.36312815 -12.79315055 205.31027417 -15 202 C-15.1997766 199.37573125 -15.282602 196.85693592 -15.27415466 194.23196411 C-15.27939134 193.4325524 -15.28462802 192.6331407 -15.29002339 191.80950439 C-15.30506541 189.12181347 -15.30572945 186.43431221 -15.30639648 183.74658203 C-15.31401513 181.8232389 -15.32244211 179.89989883 -15.33161926 177.9765625 C-15.35359974 172.74516047 -15.36236788 167.5138169 -15.36744571 162.28237391 C-15.37108496 159.01570469 -15.37732274 155.74905089 -15.3844471 152.48238754 C-15.4089535 141.09095331 -15.42199616 129.69956471 -15.42553711 118.30810547 C-15.42917376 107.68174425 -15.45907542 97.05567163 -15.50094169 86.42939866 C-15.53560464 77.31255255 -15.55108485 68.19580227 -15.55178314 59.07889068 C-15.5525773 53.63092499 -15.56137936 48.18325313 -15.58978081 42.73535538 C-15.61589308 37.61184968 -15.61820492 32.48888286 -15.60212517 27.36534119 C-15.60030524 25.48396 -15.60705019 23.6025483 -15.62294388 21.72123337 C-15.64331013 19.1541807 -15.63290965 16.58903031 -15.61473083 14.02200317 C-15.63453079 12.90298022 -15.63453079 12.90298022 -15.65473074 11.76135075 C-15.59066809 7.80575621 -15.13197315 6.16070659 -12.58657932 3.0611248 C-8.47829131 -0.2125789 -5.16420304 -0.56498958 0 0 Z " fill="#000000" transform="translate(313,152)"/>
<path d="M0 0 C3.58552881 1.63687185 4.79315055 2.68972583 7 6 C7.1997766 8.62426875 7.282602 11.14306408 7.27415466 13.76803589 C7.28200968 14.96715345 7.28200968 14.96715345 7.29002339 16.19049561 C7.30506541 18.87818653 7.30572945 21.56568779 7.30639648 24.25341797 C7.31401513 26.1767611 7.32244211 28.10010117 7.33161926 30.0234375 C7.35359974 35.25483953 7.36236788 40.4861831 7.36744571 45.71762609 C7.37108496 48.98429531 7.37732274 52.25094911 7.3844471 55.51761246 C7.4089535 66.90904669 7.42199616 78.30043529 7.42553711 89.69189453 C7.42917376 100.31825575 7.45907542 110.94432837 7.50094169 121.57060134 C7.53560464 130.68744745 7.55108485 139.80419773 7.55178314 148.92110932 C7.5525773 154.36907501 7.56137936 159.81674687 7.58978081 165.26464462 C7.61589308 170.38815032 7.61820492 175.51111714 7.60212517 180.63465881 C7.60030524 182.51604 7.60705019 184.3974517 7.62294388 186.27876663 C7.64331013 188.8458193 7.63290965 191.41096969 7.61473083 193.97799683 C7.6279308 194.72401213 7.64113077 195.47002743 7.65473074 196.23864925 C7.59066809 200.19424379 7.13197315 201.83929341 4.58657932 204.9388752 C0.47829131 208.2125789 -2.83579696 208.56498958 -8 208 C-11.58552881 206.36312815 -12.79315055 205.31027417 -15 202 C-15.1997766 199.37573125 -15.282602 196.85693592 -15.27415466 194.23196411 C-15.27939134 193.4325524 -15.28462802 192.6331407 -15.29002339 191.80950439 C-15.30506541 189.12181347 -15.30572945 186.43431221 -15.30639648 183.74658203 C-15.31401513 181.8232389 -15.32244211 179.89989883 -15.33161926 177.9765625 C-15.35359974 172.74516047 -15.36236788 167.5138169 -15.36744571 162.28237391 C-15.37108496 159.01570469 -15.37732274 155.74905089 -15.3844471 152.48238754 C-15.4089535 141.09095331 -15.42199616 129.69956471 -15.42553711 118.30810547 C-15.42917376 107.68174425 -15.45907542 97.05567163 -15.50094169 86.42939866 C-15.53560464 77.31255255 -15.55108485 68.19580227 -15.55178314 59.07889068 C-15.5525773 53.63092499 -15.56137936 48.18325313 -15.58978081 42.73535538 C-15.61589308 37.61184968 -15.61820492 32.48888286 -15.60212517 27.36534119 C-15.60030524 25.48396 -15.60705019 23.6025483 -15.62294388 21.72123337 C-15.64331013 19.1541807 -15.63290965 16.58903031 -15.61473083 14.02200317 C-15.63453079 12.90298022 -15.63453079 12.90298022 -15.65473074 11.76135075 C-15.59066809 7.80575621 -15.13197315 6.16070659 -12.58657932 3.0611248 C-8.47829131 -0.2125789 -5.16420304 -0.56498958 0 0 Z " fill="#000000" transform="translate(207,152)"/>
<path d="M0 0 C3.01784991 1.75607646 5.41468217 3.82936435 7 7 C7.10385642 8.76011589 7.14385974 10.52414379 7.15390015 12.28729248 C7.16250061 13.40886749 7.17110107 14.5304425 7.17996216 15.68600464 C7.18422211 16.92238678 7.18848206 18.15876892 7.19287109 19.43261719 C7.20104858 20.73024994 7.20922607 22.02788269 7.21765137 23.36483765 C7.24387778 27.67549561 7.2591808 31.98616332 7.2734375 36.296875 C7.27879715 37.78075415 7.28417466 39.26463324 7.28956985 40.74851227 C7.31120056 46.92155999 7.3299368 53.09460509 7.34119225 59.26768112 C7.35742795 68.11408021 7.39059373 76.96003982 7.44759309 85.80627322 C7.48630391 92.02631345 7.50582632 98.24623619 7.51111281 104.46639371 C7.51476513 108.18129435 7.52677227 111.89572633 7.55921555 115.61049652 C7.59491137 119.75719796 7.5909225 123.90295625 7.58349609 128.04980469 C7.59990143 129.2780899 7.61630676 130.50637512 7.63320923 131.7718811 C7.56509375 141.04820382 7.56509375 141.04820382 4.58853149 144.74688721 C1.0033303 147.86752248 -1.10534147 148.35577623 -5.8984375 148.27734375 C-9.42204249 147.81233268 -11.40429958 146.34849085 -14 144 C-16.79562414 138.20243576 -16.28803984 131.96897462 -16.2746582 125.67993164 C-16.27976913 124.4418425 -16.28488007 123.20375336 -16.29014587 121.92814636 C-16.30164216 118.54376105 -16.30411905 115.15962113 -16.30158257 111.77523351 C-16.30051023 108.9447943 -16.30540293 106.1143775 -16.310188 103.28394312 C-16.32126931 96.60407316 -16.32172826 89.92425945 -16.31567383 83.24438477 C-16.30963358 76.36425211 -16.32194937 69.48432394 -16.3432439 62.60422617 C-16.36088334 56.68640947 -16.3668576 50.76865772 -16.36360615 44.85081571 C-16.36179698 41.32108618 -16.36439278 37.79150256 -16.37832069 34.26179695 C-16.39327763 30.32427121 -16.38390839 26.3870042 -16.37231445 22.44946289 C-16.37995819 21.28716156 -16.38760193 20.12486023 -16.39547729 18.92733765 C-16.35593199 12.84999366 -16.02472754 8.32976679 -13 3 C-9.22352271 -0.34487989 -4.88903427 -1.05037846 0 0 Z " fill="#000000" transform="translate(419,182)"/>
<path d="M0 0 C3.5118788 1.69090461 5.44032044 2.83933674 7.14689636 6.37843323 C8.39920485 11.69469096 8.28624215 16.87589355 8.2746582 22.32006836 C8.2823246 24.17720207 8.2823246 24.17720207 8.29014587 26.07185364 C8.30164216 29.45623895 8.30411905 32.84037887 8.30158257 36.22476649 C8.30051023 39.0552057 8.30540293 41.8856225 8.310188 44.71605688 C8.32126931 51.39592684 8.32172826 58.07574055 8.31567383 64.75561523 C8.30963358 71.63574789 8.32194937 78.51567606 8.3432439 85.39577383 C8.36088334 91.31359053 8.3668576 97.23134228 8.36360615 103.14918429 C8.36179698 106.67891382 8.36439278 110.20849744 8.37832069 113.73820305 C8.39327763 117.67572879 8.38390839 121.6129958 8.37231445 125.55053711 C8.38378006 127.29398911 8.38378006 127.29398911 8.39547729 129.07266235 C8.35593199 135.15000634 8.02472754 139.67023321 5 145 C1.65789079 147.96015387 -1.53643691 148.58185442 -6 148.4296875 C-9.61068185 147.65395507 -11.45265225 145.60947818 -14 143 C-15.28429617 140.43140767 -15.13751579 138.58988814 -15.15390015 135.71270752 C-15.16250061 134.59113251 -15.17110107 133.4695575 -15.17996216 132.31399536 C-15.18422211 131.07761322 -15.18848206 129.84123108 -15.19287109 128.56738281 C-15.20104858 127.26975006 -15.20922607 125.97211731 -15.21765137 124.63516235 C-15.24387778 120.32450439 -15.2591808 116.01383668 -15.2734375 111.703125 C-15.27879715 110.21924585 -15.28417466 108.73536676 -15.28956985 107.25148773 C-15.31120056 101.07844001 -15.3299368 94.90539491 -15.34119225 88.73231888 C-15.35742795 79.88591979 -15.39059373 71.03996018 -15.44759309 62.19372678 C-15.48630391 55.97368655 -15.50582632 49.75376381 -15.51111281 43.53360629 C-15.51476513 39.81870565 -15.52677227 36.10427367 -15.55921555 32.38950348 C-15.59491137 28.24280204 -15.5909225 24.09704375 -15.58349609 19.95019531 C-15.59990143 18.7219101 -15.61630676 17.49362488 -15.63320923 16.2281189 C-15.56509375 6.95179618 -15.56509375 6.95179618 -12.58853149 3.25311279 C-8.56423077 -0.24972404 -5.23546802 -0.69092608 0 0 Z " fill="#000000" transform="translate(101,182)"/>
<path d="M0 0 C3.01784991 1.75607646 5.41468217 3.82936435 7 7 C7.11908703 9.62246509 7.17833466 12.21920523 7.19287109 14.84277344 C7.20104858 15.65272766 7.20922607 16.46268188 7.21765137 17.29718018 C7.2425158 19.9845709 7.25902499 22.67190872 7.2734375 25.359375 C7.27876118 26.27678719 7.28408485 27.19419937 7.28956985 28.13941193 C7.31630738 32.9962531 7.3356794 37.85306853 7.35009766 42.70996094 C7.36673728 47.72498162 7.41150744 52.73934409 7.4624691 57.75411606 C7.49614021 61.61119331 7.50767499 65.46811441 7.51332474 69.32532501 C7.52003876 71.17369867 7.53526478 73.02206199 7.55921555 74.87029266 C7.59086468 77.46062158 7.59090456 80.04917663 7.58349609 82.63964844 C7.59990143 83.40039673 7.61630676 84.16114502 7.63320923 84.94494629 C7.5875094 88.8573165 7.05174958 91.42690152 4.65103149 94.46002197 C1.49180083 97.48691037 -0.05403846 97.92992877 -4.375 98.25 C-8.34891784 97.9759367 -9.99755509 97.58543867 -13 95 C-15.5988474 89.96609171 -16.43793187 85.83497903 -16.38818359 80.15625 C-16.39606903 79.03041504 -16.39606903 79.03041504 -16.40411377 77.88183594 C-16.41722938 75.42100711 -16.40860608 72.96083447 -16.3984375 70.5 C-16.40046067 68.77799354 -16.40337413 67.05598792 -16.40713501 65.33398438 C-16.41154693 61.73298956 -16.40516394 58.13221869 -16.39111328 54.53125 C-16.37402201 49.92800061 -16.38386928 45.32527606 -16.40183067 40.7220459 C-16.41269921 37.16857996 -16.40920812 33.61523734 -16.4014473 30.06176758 C-16.39945377 28.36498959 -16.40187464 26.66820022 -16.40888596 24.97143555 C-16.41655127 22.59524099 -16.40482621 20.21988268 -16.38818359 17.84375 C-16.39425629 17.15055664 -16.40032898 16.45736328 -16.40658569 15.74316406 C-16.34204149 10.73945178 -15.25448819 7.37747133 -13 3 C-9.22352271 -0.34487989 -4.88903427 -1.05037846 0 0 Z " fill="#000000" transform="translate(472,207)"/>
<path d="M0 0 C3.69766711 1.78035824 5.52081632 2.88019129 7.14788818 6.68251038 C8.10187361 10.39662008 8.25408809 13.62025506 8.25878906 17.45483398 C8.2622937 18.17598389 8.26579834 18.89713379 8.26940918 19.64013672 C8.2781656 22.00888885 8.27239842 24.37733891 8.265625 26.74609375 C8.26697355 28.40226803 8.26891567 30.05844193 8.27142334 31.71461487 C8.27436648 35.18030579 8.27010362 38.64589338 8.26074219 42.11157227 C8.24935706 46.54099744 8.25590628 50.97017996 8.26788712 55.39959621 C8.27513524 58.8183625 8.2728041 62.23707186 8.26763153 65.65583992 C8.26630273 67.28842256 8.26791562 68.92101047 8.27259064 70.55358696 C8.2777036 72.84111982 8.26987891 75.12826712 8.25878906 77.41577148 C8.25640228 79.36385963 8.25640228 79.36385963 8.25396729 81.3513031 C7.87909269 86.73705096 7.10863794 91.79232183 2.9375 95.5 C-0.66468188 98.29751912 -3.34921438 98.49647498 -7.7890625 98.015625 C-11.11206813 96.48915598 -13.16049156 94.08793337 -15 91 C-15.48606798 88.03719312 -15.68657519 85.65522787 -15.64697266 82.703125 C-15.65573425 81.89258667 -15.66449585 81.08204834 -15.67352295 80.24694824 C-15.69544169 77.58074635 -15.68099189 74.9162173 -15.6640625 72.25 C-15.66743282 70.38964522 -15.67228724 68.52929258 -15.67855835 66.66894531 C-15.68591946 62.77517679 -15.67524887 58.88198284 -15.65185547 54.98828125 C-15.62336799 50.00460067 -15.63977607 45.02226646 -15.66971779 40.03863525 C-15.68781146 36.19862783 -15.68202328 32.35893805 -15.66907883 28.5189209 C-15.66575053 26.68176106 -15.6698116 24.84457211 -15.68147659 23.00744629 C-15.69421979 20.43648225 -15.67476202 17.86767866 -15.64697266 15.296875 C-15.65709381 14.54241089 -15.66721497 13.78794678 -15.67764282 13.01062012 C-15.56257018 7.24548064 -13.95640895 4.8942302 -10 1 C-6.78034329 -0.60982835 -3.49144588 -0.46076702 0 0 Z " fill="#000000" transform="translate(48,207)"/>
</svg>
